<mxfile host="app.diagrams.net" modified="2023-04-06T06:23:45.878Z" agent="5.0 (Macintosh; Intel Mac OS X 10_15_7) AppleWebKit/537.36 (KHTML, like Gecko) Chrome/111.0.0.0 Safari/537.36" etag="CdDpJj3xYdj0yp1oW_Fu" version="21.0.2" type="github">
  <diagram id="C5RBs43oDa-KdzZeNtuy" name="Page-1">
    <mxGraphModel dx="1434" dy="796" grid="1" gridSize="10" guides="1" tooltips="1" connect="1" arrows="1" fold="1" page="1" pageScale="1" pageWidth="827" pageHeight="1169" math="0" shadow="0">
      <root>
        <mxCell id="WIyWlLk6GJQsqaUBKTNV-0" />
        <mxCell id="WIyWlLk6GJQsqaUBKTNV-1" parent="WIyWlLk6GJQsqaUBKTNV-0" />
        <mxCell id="vo5_xbkKXeh1uVnPVetr-8" value="积分系统" style="swimlane;childLayout=stackLayout;resizeParent=1;resizeParentMax=0;horizontal=1;startSize=20;horizontalStack=0;html=1;" vertex="1" parent="WIyWlLk6GJQsqaUBKTNV-1">
          <mxGeometry x="170" y="20" width="620" height="1350" as="geometry" />
        </mxCell>
        <mxCell id="vo5_xbkKXeh1uVnPVetr-9" value="安全检查" style="swimlane;startSize=20;horizontal=0;html=1;" vertex="1" parent="vo5_xbkKXeh1uVnPVetr-8">
          <mxGeometry y="20" width="620" height="650" as="geometry" />
        </mxCell>
        <mxCell id="vo5_xbkKXeh1uVnPVetr-12" value="政府" style="swimlane;startSize=23;" vertex="1" parent="vo5_xbkKXeh1uVnPVetr-9">
          <mxGeometry x="20" width="200" height="650" as="geometry" />
        </mxCell>
        <mxCell id="vo5_xbkKXeh1uVnPVetr-37" value="" style="edgeStyle=orthogonalEdgeStyle;rounded=0;orthogonalLoop=1;jettySize=auto;html=1;" edge="1" parent="vo5_xbkKXeh1uVnPVetr-12" source="vo5_xbkKXeh1uVnPVetr-35" target="vo5_xbkKXeh1uVnPVetr-29">
          <mxGeometry relative="1" as="geometry" />
        </mxCell>
        <mxCell id="vo5_xbkKXeh1uVnPVetr-35" value="审核" style="whiteSpace=wrap;html=1;" vertex="1" parent="vo5_xbkKXeh1uVnPVetr-12">
          <mxGeometry x="30" y="215" width="120" height="60" as="geometry" />
        </mxCell>
        <mxCell id="vo5_xbkKXeh1uVnPVetr-39" value="" style="edgeStyle=orthogonalEdgeStyle;rounded=0;orthogonalLoop=1;jettySize=auto;html=1;" edge="1" parent="vo5_xbkKXeh1uVnPVetr-12" source="vo5_xbkKXeh1uVnPVetr-29" target="vo5_xbkKXeh1uVnPVetr-38">
          <mxGeometry relative="1" as="geometry" />
        </mxCell>
        <mxCell id="vo5_xbkKXeh1uVnPVetr-53" value="是" style="edgeLabel;html=1;align=center;verticalAlign=middle;resizable=0;points=[];" vertex="1" connectable="0" parent="vo5_xbkKXeh1uVnPVetr-39">
          <mxGeometry x="0.0667" y="1" relative="1" as="geometry">
            <mxPoint as="offset" />
          </mxGeometry>
        </mxCell>
        <mxCell id="vo5_xbkKXeh1uVnPVetr-44" style="rounded=0;orthogonalLoop=1;jettySize=auto;html=1;edgeStyle=orthogonalEdgeStyle;strokeColor=default;endArrow=none;endFill=0;" edge="1" parent="vo5_xbkKXeh1uVnPVetr-12" source="vo5_xbkKXeh1uVnPVetr-29">
          <mxGeometry relative="1" as="geometry">
            <mxPoint x="179" y="176" as="targetPoint" />
          </mxGeometry>
        </mxCell>
        <mxCell id="vo5_xbkKXeh1uVnPVetr-52" value="否" style="edgeLabel;html=1;align=center;verticalAlign=middle;resizable=0;points=[];" vertex="1" connectable="0" parent="vo5_xbkKXeh1uVnPVetr-44">
          <mxGeometry x="-0.7537" y="-3" relative="1" as="geometry">
            <mxPoint as="offset" />
          </mxGeometry>
        </mxCell>
        <mxCell id="vo5_xbkKXeh1uVnPVetr-29" value="是否通过" style="rhombus;whiteSpace=wrap;html=1;" vertex="1" parent="vo5_xbkKXeh1uVnPVetr-12">
          <mxGeometry x="35" y="320" width="110" height="50" as="geometry" />
        </mxCell>
        <mxCell id="vo5_xbkKXeh1uVnPVetr-38" value="完成" style="rounded=1;whiteSpace=wrap;html=1;" vertex="1" parent="vo5_xbkKXeh1uVnPVetr-12">
          <mxGeometry x="30" y="445" width="120" height="60" as="geometry" />
        </mxCell>
        <mxCell id="vo5_xbkKXeh1uVnPVetr-21" value="设置积分规则" style="shape=process;whiteSpace=wrap;html=1;backgroundOutline=1;" vertex="1" parent="vo5_xbkKXeh1uVnPVetr-12">
          <mxGeometry x="25" y="50" width="120" height="60" as="geometry" />
        </mxCell>
        <mxCell id="vo5_xbkKXeh1uVnPVetr-13" value="企业" style="swimlane;" vertex="1" parent="vo5_xbkKXeh1uVnPVetr-9">
          <mxGeometry x="220" width="200" height="650" as="geometry" />
        </mxCell>
        <mxCell id="vo5_xbkKXeh1uVnPVetr-30" value="是否申诉" style="rhombus;whiteSpace=wrap;html=1;" vertex="1" parent="vo5_xbkKXeh1uVnPVetr-13">
          <mxGeometry x="35" y="150" width="110" height="50" as="geometry" />
        </mxCell>
        <mxCell id="vo5_xbkKXeh1uVnPVetr-31" value="整改" style="whiteSpace=wrap;html=1;" vertex="1" parent="vo5_xbkKXeh1uVnPVetr-13">
          <mxGeometry x="30" y="275" width="120" height="60" as="geometry" />
        </mxCell>
        <mxCell id="vo5_xbkKXeh1uVnPVetr-32" value="" style="edgeStyle=orthogonalEdgeStyle;rounded=0;orthogonalLoop=1;jettySize=auto;html=1;" edge="1" parent="vo5_xbkKXeh1uVnPVetr-13" source="vo5_xbkKXeh1uVnPVetr-30" target="vo5_xbkKXeh1uVnPVetr-31">
          <mxGeometry relative="1" as="geometry" />
        </mxCell>
        <mxCell id="vo5_xbkKXeh1uVnPVetr-50" value="否" style="edgeLabel;html=1;align=center;verticalAlign=middle;resizable=0;points=[];" vertex="1" connectable="0" parent="vo5_xbkKXeh1uVnPVetr-32">
          <mxGeometry x="-0.1733" y="2" relative="1" as="geometry">
            <mxPoint as="offset" />
          </mxGeometry>
        </mxCell>
        <mxCell id="vo5_xbkKXeh1uVnPVetr-33" value="完成" style="rounded=1;whiteSpace=wrap;html=1;" vertex="1" parent="vo5_xbkKXeh1uVnPVetr-13">
          <mxGeometry x="30" y="415" width="120" height="60" as="geometry" />
        </mxCell>
        <mxCell id="vo5_xbkKXeh1uVnPVetr-34" value="" style="edgeStyle=orthogonalEdgeStyle;rounded=0;orthogonalLoop=1;jettySize=auto;html=1;" edge="1" parent="vo5_xbkKXeh1uVnPVetr-13" source="vo5_xbkKXeh1uVnPVetr-31" target="vo5_xbkKXeh1uVnPVetr-33">
          <mxGeometry relative="1" as="geometry" />
        </mxCell>
        <mxCell id="vo5_xbkKXeh1uVnPVetr-18" value="第三方机构" style="swimlane;" vertex="1" parent="vo5_xbkKXeh1uVnPVetr-9">
          <mxGeometry x="420" width="200" height="650" as="geometry" />
        </mxCell>
        <mxCell id="vo5_xbkKXeh1uVnPVetr-42" value="" style="edgeStyle=orthogonalEdgeStyle;rounded=0;orthogonalLoop=1;jettySize=auto;html=1;" edge="1" parent="vo5_xbkKXeh1uVnPVetr-18" source="vo5_xbkKXeh1uVnPVetr-22" target="vo5_xbkKXeh1uVnPVetr-41">
          <mxGeometry relative="1" as="geometry" />
        </mxCell>
        <mxCell id="vo5_xbkKXeh1uVnPVetr-48" value="否" style="edgeLabel;html=1;align=center;verticalAlign=middle;resizable=0;points=[];" vertex="1" connectable="0" parent="vo5_xbkKXeh1uVnPVetr-42">
          <mxGeometry x="0.2267" y="2" relative="1" as="geometry">
            <mxPoint as="offset" />
          </mxGeometry>
        </mxCell>
        <mxCell id="vo5_xbkKXeh1uVnPVetr-22" value="是否存在不符合项" style="rhombus;whiteSpace=wrap;html=1;" vertex="1" parent="vo5_xbkKXeh1uVnPVetr-18">
          <mxGeometry x="45" y="150" width="110" height="50" as="geometry" />
        </mxCell>
        <mxCell id="vo5_xbkKXeh1uVnPVetr-23" value="" style="edgeStyle=orthogonalEdgeStyle;rounded=0;orthogonalLoop=1;jettySize=auto;html=1;" edge="1" parent="vo5_xbkKXeh1uVnPVetr-18" source="vo5_xbkKXeh1uVnPVetr-20" target="vo5_xbkKXeh1uVnPVetr-22">
          <mxGeometry relative="1" as="geometry" />
        </mxCell>
        <mxCell id="vo5_xbkKXeh1uVnPVetr-20" value="开始安全检查" style="whiteSpace=wrap;html=1;" vertex="1" parent="vo5_xbkKXeh1uVnPVetr-18">
          <mxGeometry x="40" y="50" width="120" height="60" as="geometry" />
        </mxCell>
        <mxCell id="vo5_xbkKXeh1uVnPVetr-41" value="完成" style="rounded=1;whiteSpace=wrap;html=1;" vertex="1" parent="vo5_xbkKXeh1uVnPVetr-18">
          <mxGeometry x="40" y="275" width="120" height="60" as="geometry" />
        </mxCell>
        <mxCell id="vo5_xbkKXeh1uVnPVetr-36" value="" style="edgeStyle=orthogonalEdgeStyle;rounded=0;orthogonalLoop=1;jettySize=auto;html=1;" edge="1" parent="vo5_xbkKXeh1uVnPVetr-9" source="vo5_xbkKXeh1uVnPVetr-30" target="vo5_xbkKXeh1uVnPVetr-35">
          <mxGeometry relative="1" as="geometry" />
        </mxCell>
        <mxCell id="vo5_xbkKXeh1uVnPVetr-51" value="是" style="edgeLabel;html=1;align=center;verticalAlign=middle;resizable=0;points=[];" vertex="1" connectable="0" parent="vo5_xbkKXeh1uVnPVetr-36">
          <mxGeometry x="-0.0919" y="2" relative="1" as="geometry">
            <mxPoint as="offset" />
          </mxGeometry>
        </mxCell>
        <mxCell id="vo5_xbkKXeh1uVnPVetr-40" value="" style="edgeStyle=orthogonalEdgeStyle;rounded=0;orthogonalLoop=1;jettySize=auto;html=1;" edge="1" parent="vo5_xbkKXeh1uVnPVetr-9" source="vo5_xbkKXeh1uVnPVetr-22" target="vo5_xbkKXeh1uVnPVetr-30">
          <mxGeometry relative="1" as="geometry" />
        </mxCell>
        <mxCell id="vo5_xbkKXeh1uVnPVetr-49" value="是" style="edgeLabel;html=1;align=center;verticalAlign=middle;resizable=0;points=[];" vertex="1" connectable="0" parent="vo5_xbkKXeh1uVnPVetr-40">
          <mxGeometry x="-0.46" y="2" relative="1" as="geometry">
            <mxPoint as="offset" />
          </mxGeometry>
        </mxCell>
        <mxCell id="vo5_xbkKXeh1uVnPVetr-43" style="edgeStyle=orthogonalEdgeStyle;rounded=0;orthogonalLoop=1;jettySize=auto;html=1;entryX=0;entryY=0.5;entryDx=0;entryDy=0;" edge="1" parent="vo5_xbkKXeh1uVnPVetr-9" source="vo5_xbkKXeh1uVnPVetr-21" target="vo5_xbkKXeh1uVnPVetr-20">
          <mxGeometry relative="1" as="geometry" />
        </mxCell>
        <mxCell id="vo5_xbkKXeh1uVnPVetr-54" value="企业回补扣分，第三方扣分+回补之前的加分" style="shape=document;whiteSpace=wrap;html=1;boundedLbl=1;rounded=1;" vertex="1" parent="vo5_xbkKXeh1uVnPVetr-9">
          <mxGeometry x="-150" y="435" width="120" height="80" as="geometry" />
        </mxCell>
        <mxCell id="vo5_xbkKXeh1uVnPVetr-55" value="" style="edgeStyle=orthogonalEdgeStyle;rounded=0;orthogonalLoop=1;jettySize=auto;html=1;dashed=1;" edge="1" parent="vo5_xbkKXeh1uVnPVetr-9" source="vo5_xbkKXeh1uVnPVetr-38" target="vo5_xbkKXeh1uVnPVetr-54">
          <mxGeometry relative="1" as="geometry" />
        </mxCell>
        <mxCell id="vo5_xbkKXeh1uVnPVetr-10" value="文档管理" style="swimlane;startSize=20;horizontal=0;html=1;" vertex="1" parent="vo5_xbkKXeh1uVnPVetr-8">
          <mxGeometry y="670" width="620" height="680" as="geometry" />
        </mxCell>
        <mxCell id="vo5_xbkKXeh1uVnPVetr-74" value="" style="swimlane;startSize=0;" vertex="1" parent="vo5_xbkKXeh1uVnPVetr-10">
          <mxGeometry x="420" width="200" height="320" as="geometry" />
        </mxCell>
        <mxCell id="vo5_xbkKXeh1uVnPVetr-89" value="" style="edgeStyle=orthogonalEdgeStyle;rounded=0;orthogonalLoop=1;jettySize=auto;html=1;" edge="1" parent="vo5_xbkKXeh1uVnPVetr-10" source="vo5_xbkKXeh1uVnPVetr-76" target="vo5_xbkKXeh1uVnPVetr-83">
          <mxGeometry relative="1" as="geometry" />
        </mxCell>
        <mxCell id="vo5_xbkKXeh1uVnPVetr-76" value="审核" style="whiteSpace=wrap;html=1;" vertex="1" parent="vo5_xbkKXeh1uVnPVetr-10">
          <mxGeometry x="50" y="50" width="120" height="60" as="geometry" />
        </mxCell>
        <mxCell id="vo5_xbkKXeh1uVnPVetr-83" value="完成" style="rounded=1;whiteSpace=wrap;html=1;" vertex="1" parent="vo5_xbkKXeh1uVnPVetr-10">
          <mxGeometry x="50" y="200" width="120" height="60" as="geometry" />
        </mxCell>
        <mxCell id="vo5_xbkKXeh1uVnPVetr-68" value="" style="swimlane;startSize=0;" vertex="1" parent="vo5_xbkKXeh1uVnPVetr-10">
          <mxGeometry x="220" width="200" height="680" as="geometry" />
        </mxCell>
        <mxCell id="vo5_xbkKXeh1uVnPVetr-25" value="" style="rhombus;whiteSpace=wrap;html=1;" vertex="1" parent="WIyWlLk6GJQsqaUBKTNV-1">
          <mxGeometry x="10" y="240" width="110" height="50" as="geometry" />
        </mxCell>
        <mxCell id="vo5_xbkKXeh1uVnPVetr-57" value="企业加分" style="shape=document;whiteSpace=wrap;html=1;boundedLbl=1;" vertex="1" parent="WIyWlLk6GJQsqaUBKTNV-1">
          <mxGeometry x="20" y="585" width="120" height="80" as="geometry" />
        </mxCell>
        <mxCell id="vo5_xbkKXeh1uVnPVetr-58" style="edgeStyle=orthogonalEdgeStyle;rounded=0;orthogonalLoop=1;jettySize=auto;html=1;entryX=1;entryY=0.5;entryDx=0;entryDy=0;dashed=1;" edge="1" parent="WIyWlLk6GJQsqaUBKTNV-1" source="vo5_xbkKXeh1uVnPVetr-33" target="vo5_xbkKXeh1uVnPVetr-57">
          <mxGeometry relative="1" as="geometry">
            <Array as="points">
              <mxPoint x="480" y="625" />
            </Array>
          </mxGeometry>
        </mxCell>
        <mxCell id="vo5_xbkKXeh1uVnPVetr-61" value="企业扣分" style="shape=document;whiteSpace=wrap;html=1;boundedLbl=1;" vertex="1" parent="WIyWlLk6GJQsqaUBKTNV-1">
          <mxGeometry x="850" y="175" width="120" height="80" as="geometry" />
        </mxCell>
        <mxCell id="vo5_xbkKXeh1uVnPVetr-62" style="edgeStyle=orthogonalEdgeStyle;rounded=0;orthogonalLoop=1;jettySize=auto;html=1;dashed=1;" edge="1" parent="WIyWlLk6GJQsqaUBKTNV-1" source="vo5_xbkKXeh1uVnPVetr-22" target="vo5_xbkKXeh1uVnPVetr-61">
          <mxGeometry relative="1" as="geometry" />
        </mxCell>
        <mxCell id="vo5_xbkKXeh1uVnPVetr-63" value="第三方加分" style="shape=document;whiteSpace=wrap;html=1;boundedLbl=1;rounded=1;" vertex="1" parent="WIyWlLk6GJQsqaUBKTNV-1">
          <mxGeometry x="850" y="305" width="120" height="80" as="geometry" />
        </mxCell>
        <mxCell id="vo5_xbkKXeh1uVnPVetr-64" value="" style="edgeStyle=orthogonalEdgeStyle;rounded=0;orthogonalLoop=1;jettySize=auto;html=1;dashed=1;" edge="1" parent="WIyWlLk6GJQsqaUBKTNV-1" source="vo5_xbkKXeh1uVnPVetr-41" target="vo5_xbkKXeh1uVnPVetr-63">
          <mxGeometry relative="1" as="geometry" />
        </mxCell>
        <mxCell id="vo5_xbkKXeh1uVnPVetr-77" value="" style="edgeStyle=orthogonalEdgeStyle;rounded=0;orthogonalLoop=1;jettySize=auto;html=1;" edge="1" parent="WIyWlLk6GJQsqaUBKTNV-1" source="vo5_xbkKXeh1uVnPVetr-75" target="vo5_xbkKXeh1uVnPVetr-76">
          <mxGeometry relative="1" as="geometry" />
        </mxCell>
        <mxCell id="vo5_xbkKXeh1uVnPVetr-75" value="上传文档" style="whiteSpace=wrap;html=1;" vertex="1" parent="WIyWlLk6GJQsqaUBKTNV-1">
          <mxGeometry x="420" y="740" width="120" height="60" as="geometry" />
        </mxCell>
        <mxCell id="vo5_xbkKXeh1uVnPVetr-78" value="" style="rhombus;whiteSpace=wrap;html=1;" vertex="1" parent="WIyWlLk6GJQsqaUBKTNV-1">
          <mxGeometry x="20" y="250" width="110" height="50" as="geometry" />
        </mxCell>
        <mxCell id="vo5_xbkKXeh1uVnPVetr-86" value="不通过企业扣分" style="shape=document;whiteSpace=wrap;html=1;boundedLbl=1;rounded=1;" vertex="1" parent="WIyWlLk6GJQsqaUBKTNV-1">
          <mxGeometry x="5" y="890" width="120" height="80" as="geometry" />
        </mxCell>
        <mxCell id="vo5_xbkKXeh1uVnPVetr-90" style="edgeStyle=orthogonalEdgeStyle;rounded=0;orthogonalLoop=1;jettySize=auto;html=1;entryX=1.033;entryY=0.363;entryDx=0;entryDy=0;entryPerimeter=0;dashed=1;" edge="1" parent="WIyWlLk6GJQsqaUBKTNV-1" source="vo5_xbkKXeh1uVnPVetr-83" target="vo5_xbkKXeh1uVnPVetr-86">
          <mxGeometry relative="1" as="geometry" />
        </mxCell>
      </root>
    </mxGraphModel>
  </diagram>
</mxfile>
